<svg width="31" height="32" viewBox="0 0 31 32" fill="none" xmlns="http://www.w3.org/2000/svg">
<path d="M20.0352 31.36H3.0496C1.2512 31.36 0 29.4176 0 27.6768V3.2608C0 1.4624 1.3696 0 3.0496 0H20.0352V2.6144H3.0496C2.8448 2.6144 2.6144 2.8896 2.6144 3.2608V27.6768C2.6144 28.1664 2.9472 28.6848 3.1136 28.7584L20.0352 28.7488V31.36Z" fill="white"/>
<path d="M16.3104 22.6336L6.34875 16.4224L16.3968 10.4128L17.7376 12.656L11.3632 16.4672L17.696 20.416L16.3104 22.6336Z" fill="white"/>
<path d="M17.5233 18.8512C14.1377 18.8512 11.3665 18.3104 11.1425 18.2656L11.6577 15.7024C11.7569 15.7216 21.4785 17.616 25.9393 14.1728C27.2577 13.1552 27.9521 11.776 28.0609 9.9552L30.6689 10.1088C30.5153 12.6944 29.4625 14.7584 27.5329 16.2432C24.8417 18.3168 20.8801 18.8512 17.5233 18.8512Z" fill="white"/>
</svg>
